<svg xmlns="http://www.w3.org/2000/svg" xmlns:xlink="http://www.w3.org/1999/xlink" width="31.88px" height="32px" viewBox="0 0 32 32" role="img" fill="#000000" stroke="#000000"><g id="SVGRepo_bgCarrier" stroke-width="0"></g><g id="SVGRepo_tracerCarrier" stroke-linecap="round" stroke-linejoin="round"></g><g id="SVGRepo_iconCarrier"> <style type="text/css"> .sketchy_een{fill:#111918;} </style> <path class="sketchy_een" d="M6.153,5.72c0.028-0.004,0.056-0.007,0.083-0.011c0.045-0.006,0.091-0.012,0.136-0.018 C6.299,5.701,6.227,5.711,6.153,5.72z M13.644,19.33c0.01,0.078,0.021,0.155,0.031,0.233c0,0.14-0.037,0.272-0.107,0.395 c-0.064,0.128-0.163,0.241-0.251,0.352c-0.078,0.099-0.155,0.196-0.235,0.291c-0.155,0.19-0.315,0.377-0.472,0.563 c-0.28,0.33-0.557,0.664-0.828,1.003c-0.289,0.387-0.57,0.782-0.866,1.162c-0.262,0.336-0.534,0.664-0.798,0.998 c-0.193,0.259-0.371,0.531-0.56,0.794c-0.237,0.33-0.491,0.648-0.763,0.952c-0.164,0.183-0.406,0.245-0.641,0.221 c-0.338,0.294-0.823,0.264-1.148-0.031c-0.214-0.194-0.398-0.439-0.579-0.664c-0.214-0.271-0.422-0.544-0.629-0.818 c-0.481-0.612-1.023-1.18-1.544-1.757c-0.684-0.757-1.385-1.496-2.018-2.297C2.099,20.549,2,20.386,2,20.149 c0-0.218,0.087-0.427,0.239-0.579c0.153-0.153,0.363-0.241,0.579-0.241c0.086,0,0.184,0.022,0.278,0.053 c0.014-0.01,0.026-0.023,0.041-0.033c0.196-0.119,0.429-0.137,0.659-0.137c0.082,0,0.163,0.002,0.242,0.003 c0.123,0.002,0.24,0.03,0.346,0.079c0.034,0,0.067-0.004,0.1-0.005c0.019-0.547,0.047-1.093,0.079-1.639 c0.039-0.688,0.027-1.375,0.031-2.062c0.004-0.713-0.008-1.432,0.029-2.142c0.035-0.732,0.076-1.46,0.083-2.192 c0.01-0.777,0.052-1.55,0.099-2.325c0.046-0.799,0.08-1.598,0.149-2.394c0.002-0.021,0.001-0.042,0.005-0.063 C4.961,6.448,4.962,6.424,4.964,6.4c0.019-0.212,0.072-0.391,0.227-0.546c0.144-0.144,0.34-0.225,0.544-0.225 c0.128,0,0.247,0.042,0.358,0.101c0.048-0.006,0.095-0.014,0.143-0.02c0.543-0.07,1.09-0.126,1.637-0.117 C8.311,5.601,8.746,5.608,9.18,5.564c0.09-0.014,0.18-0.028,0.27-0.042C9.53,5.509,9.607,5.5,9.681,5.5 c0.132,0,0.259,0.027,0.387,0.102c0.085,0.049,0.157,0.117,0.218,0.192c0.266,0.12,0.471,0.385,0.455,0.688 c-0.076,1.435-0.15,2.87-0.157,4.307c-0.006,1.538,0.027,3.074,0.041,4.612c0.008,0.73,0.043,1.458,0.056,2.187 c0.008,0.344,0.004,0.688,0.008,1.031c0.001,0.084-0.001,0.168-0.001,0.252c0.458-0.047,0.916-0.095,1.376-0.138 c0.12-0.012,0.239-0.026,0.358-0.026c0.037,0,0.074,0.001,0.112,0.004c0.181,0.018,0.4,0.008,0.563,0.07 c0.132,0.037,0.249,0.104,0.346,0.202S13.606,19.197,13.644,19.33z M5.909,24.919c-0.023-0.029-0.045-0.058-0.068-0.087 c0.004,0.005,0.008,0.01,0.012,0.015c-0.016-0.02-0.031-0.04-0.047-0.06C5.84,24.831,5.874,24.875,5.909,24.919z M11.259,20.4 c-0.313,0.036-0.626,0.074-0.939,0.109c-0.2,0.021-0.431-0.099-0.567-0.235c-0.006-0.006-0.008-0.015-0.014-0.021 c-0.022-0.004-0.045,0.001-0.067-0.004c-0.404-0.111-0.676-0.56-0.55-0.969c0.007-0.021,0.012-0.043,0.017-0.065 c0.042-0.501,0.014-1.016,0.008-1.517c-0.006-0.534-0.027-1.066-0.029-1.601c-0.006-0.769-0.021-1.538-0.019-2.305 c0.004-0.76,0.021-1.517,0.025-2.276c0.008-1.457,0.028-2.914,0.082-4.37c-0.117,0.013-0.232,0.034-0.35,0.041 C8.592,7.204,8.332,7.21,8.068,7.206C7.786,7.202,7.504,7.204,7.225,7.237C6.988,7.263,6.753,7.295,6.516,7.325 C6.489,7.329,6.461,7.334,6.433,7.338C6.397,7.792,6.357,8.246,6.326,8.701c-0.047,0.701-0.05,1.402-0.058,2.103 c-0.018,1.462-0.099,2.922-0.085,4.385c0.006,0.744,0.019,1.492-0.018,2.233c-0.017,0.375-0.056,0.746-0.072,1.119 c-0.014,0.365-0.012,0.728-0.008,1.093c0.005,0.262-0.136,0.487-0.336,0.635c-0.036,0.141-0.096,0.275-0.2,0.38 c-0.165,0.167-0.348,0.21-0.573,0.237c-0.154,0.019-0.308,0.018-0.463,0.024c0.367,0.419,0.739,0.834,1.109,1.251 c0.315,0.355,0.656,0.686,0.979,1.033c0.325,0.353,0.617,0.731,0.908,1.112c0.105,0.135,0.213,0.272,0.328,0.402 c0.069-0.081,0.138-0.161,0.205-0.243c0.298-0.396,0.575-0.809,0.891-1.192c0.318-0.385,0.641-0.765,0.953-1.156 c-0.041,0.053-0.082,0.105-0.122,0.159c0.39-0.507,0.775-1.018,1.187-1.507C11.054,20.646,11.156,20.523,11.259,20.4z M29.997,7.722 c-0.018,0.462-0.051,0.932-0.132,1.389c-0.017,0.091-0.035,0.181-0.06,0.268c-0.041,0.146-0.091,0.318-0.181,0.437 c-0.142,0.194-0.285,0.369-0.511,0.468c-0.233,0.103-0.466,0.151-0.72,0.144c-0.392-0.014-0.785-0.029-1.177-0.031 c-0.823-0.004-1.647-0.006-2.47-0.008c-0.835-0.002-1.666,0.025-2.501,0.042c-0.233,0.006-0.466,0.004-0.697,0.002 c-0.163-0.002-0.326-0.004-0.487-0.004c-0.445,0.002-0.887,0.004-1.332,0.004c-0.829,0.002-1.658,0.01-2.488,0.006 c-0.418-0.002-0.841,0-1.256-0.037c-0.28-0.025-0.565-0.05-0.808-0.204c-0.223-0.14-0.406-0.369-0.454-0.629 c-0.043-0.221-0.029-0.394,0.014-0.615c0.007-0.034,0.014-0.068,0.02-0.102c0.025-0.28,0.021-0.565,0.034-0.846 c0.021-0.437,0.049-0.874,0.083-1.311c0.018-0.237,0.082-0.443,0.256-0.618c0.163-0.163,0.386-0.256,0.618-0.256 c0.1,0,0.199,0.018,0.292,0.051c0.16-0.151,0.333-0.193,0.547-0.22c0.072-0.008,0.146-0.012,0.218-0.01 c1.602,0.025,3.206,0.012,4.808,0c1.723-0.011,3.445-0.031,5.168-0.048c0.408-0.004,0.814-0.018,1.222-0.018 c0.2,0,0.4,0.006,0.6,0.02c0.254,0.02,0.484,0.06,0.711,0.175c0.179,0.091,0.394,0.26,0.478,0.451 c0.054,0.126,0.113,0.245,0.134,0.382c0.016,0.095,0.029,0.198,0.039,0.297c0.008,0.078,0.014,0.155,0.019,0.233 C29.995,7.33,30.005,7.524,29.997,7.722z M28.308,7.825c0.006-0.191-0.003-0.38-0.019-0.569c-0.542-0.038-1.085-0.023-1.627-0.02 c-0.882,0.002-1.761-0.006-2.643-0.016c-0.416-0.006-0.831-0.004-1.247-0.002s-0.831,0.002-1.245-0.004 c-0.823-0.012-1.647-0.021-2.47-0.023c-0.421-0.002-0.841-0.004-1.262-0.006c-0.332,0-0.668-0.008-1,0.018 c-0.074,0.014-0.148,0.021-0.22,0.02c-0.03,0.337-0.059,0.674-0.081,1.011c-0.012,0.183-0.012,0.366-0.022,0.548 c0.706,0.056,1.418,0.068,2.125,0.081c0.847,0.017,1.695,0.019,2.542,0.019c0.81,0.002,1.618-0.039,2.427-0.052 c0.845-0.016,1.691-0.018,2.536-0.021c0.406-0.002,0.81-0.01,1.216-0.012c0.101,0,0.202,0,0.303,0c0.2,0.001,0.4,0.002,0.598-0.007 c0.009-0.041,0.017-0.082,0.024-0.124C28.276,8.387,28.301,8.107,28.308,7.825z M25.896,15.213c0.006,0.352,0.033,0.705,0.017,1.057 c-0.006,0.18-0.019,0.365-0.043,0.545c-0.029,0.224-0.052,0.449-0.132,0.662c-0.041,0.111-0.08,0.229-0.148,0.326 c-0.105,0.146-0.184,0.216-0.33,0.321c-0.157,0.113-0.4,0.136-0.583,0.147c-0.169,0.01-0.336,0.021-0.505,0.041 c-0.299,0.035-0.602,0.025-0.901,0.033c-0.353,0.01-0.703,0.006-1.056-0.018c-0.761-0.05-1.523-0.06-2.286-0.068 c-0.781-0.01-1.561-0.014-2.344-0.02c-0.425-0.003-0.853,0.002-1.276-0.023c-0.167-0.008-0.336-0.031-0.499-0.066 c-0.212-0.048-0.47-0.149-0.612-0.322c-0.151-0.187-0.268-0.354-0.336-0.586c-0.021-0.076-0.037-0.151-0.049-0.229 c-0.066-0.445-0.012-0.896-0.004-1.346c0.01-0.427,0.004-0.856-0.031-1.284c-0.037-0.462,0.414-0.849,0.849-0.849 c0.135,0,0.267,0.033,0.386,0.094c0.275-0.048,0.532-0.036,0.81-0.034c0.206,0.002,0.414,0.002,0.619,0 c0.439-0.004,0.878-0.01,1.317-0.018c0.946-0.016,1.891-0.031,2.837-0.02c0.847,0.012,1.705,0.012,2.55,0.093 c0.472,0.047,1.014,0.074,1.371,0.433c0.227,0.228,0.346,0.491,0.367,0.814C25.892,15.004,25.894,15.108,25.896,15.213z M24.218,15.36c-0.627-0.07-1.262-0.088-1.891-0.108c-0.707-0.021-1.414-0.042-2.121-0.041c-0.699,0.002-1.396,0.008-2.095,0.006 c-0.295,0-0.592,0-0.888-0.004c-0.241-0.001-0.484-0.01-0.726-0.004c-0.002,0.152-0.005,0.305-0.008,0.458 c-0.006,0.292-0.033,0.595-0.022,0.891c0.332,0.028,0.668,0.037,1.002,0.047c0.4,0.013,0.8,0.025,1.2,0.031 c0.713,0.01,1.425,0.008,2.136,0.01c0.699,0.004,1.396,0.068,2.097,0.064c0.44-0.003,0.883-0.015,1.323-0.045h0 C24.268,16.231,24.256,15.795,24.218,15.36z M21.679,21.38c0.076,0.132,0.115,0.275,0.117,0.429 c-0.107,0.851-0.023,1.715-0.165,2.563c-0.072,0.431-0.245,0.847-0.62,1.099c-0.297,0.202-0.647,0.19-0.988,0.167 c-0.39-0.027-0.779-0.07-1.169-0.093c-0.383-0.023-0.765-0.052-1.148-0.06c-0.472-0.012-0.936-0.035-1.404-0.099 c-0.287-0.039-0.573-0.159-0.783-0.365c-0.173-0.169-0.278-0.355-0.365-0.579c-0.093-0.239-0.089-0.496-0.066-0.748 c0.039-0.396,0.039-0.794,0.082-1.192c0.027-0.26,0.049-0.575,0.144-0.827c0.087-0.231,0.183-0.435,0.373-0.602 c0.167-0.149,0.377-0.266,0.598-0.311c0.452-0.091,0.924-0.111,1.385-0.111c0.891,0.002,1.781,0.008,2.672,0.006 c0.251-0.001,0.48,0.118,0.631,0.303c0.067,0.002,0.133,0.012,0.198,0.029C21.382,21.047,21.567,21.189,21.679,21.38z M16.749,22.293L16.749,22.293L16.749,22.293c-0.004,0.004-0.007,0.008-0.01,0.013C16.742,22.302,16.745,22.298,16.749,22.293z M20.05,22.904c0.002-0.194-0.002-0.391-0.002-0.585c0-0.009,0-0.019,0-0.029c-0.554-0.005-1.108-0.021-1.662-0.037 c-0.512-0.016-1.035-0.03-1.546,0.022c-0.011,0.053-0.021,0.106-0.03,0.159c-0.024,0.268-0.017,0.534-0.016,0.802 c0.002,0.157-0.001,0.314,0.003,0.472c0.023,0.004,0.047,0.009,0.07,0.013c0.604,0.048,1.21,0.068,1.816,0.108 c0.289,0.019,0.581,0.037,0.87,0.058c0.149,0.01,0.299,0.026,0.449,0.039C20.034,23.586,20.045,23.245,20.05,22.904z"></path> </g></svg>